<svg width="22" height="17" viewBox="0 0 22 17" fill="none" xmlns="http://www.w3.org/2000/svg">
<g clip-path="url(#clip0_2_20)">
<path fill-rule="evenodd" clip-rule="evenodd" d="M21.008 1.89601C20.235 2.21801 19.404 2.43301 18.533 2.53101C19.423 2.03101 20.106 1.23901 20.428 0.297007C19.594 0.759007 18.672 1.09501 17.69 1.27701C16.905 0.491007 15.784 0.00100708 14.545 0.00100708C12.165 0.00100708 10.234 1.81001 10.234 4.04001C10.234 4.35701 10.272 4.66601 10.346 4.96101C6.764 4.79201 3.588 3.18401 1.462 0.741007C1.091 1.33801 0.879 2.03101 0.879 2.77201C0.879 4.17201 1.64 5.41001 2.796 6.13401C2.09 6.11201 1.426 5.93101 0.844 5.62801C0.844 5.64601 0.844 5.66101 0.844 5.68001C0.844 7.63701 2.329 9.26901 4.301 9.64001C3.94 9.73201 3.558 9.78001 3.166 9.78001C2.888 9.78001 2.618 9.75601 2.355 9.71001C2.903 11.313 4.495 12.482 6.381 12.515C4.906 13.598 3.048 14.243 1.028 14.243C0.68 14.243 0.337 14.224 0 14.187C1.907 15.332 4.173 16.002 6.607 16.002C14.535 16.002 18.87 9.84601 18.87 4.50901C18.87 4.33301 18.865 4.16001 18.857 3.98601C19.699 3.41601 20.43 2.70501 21.008 1.89601V1.89601Z" fill="white"/>
</g>
<defs>
<clipPath id="clip0_2_20">
<rect width="22" height="17" fill="white"/>
</clipPath>
</defs>
</svg>
